<svg width="232" height="204" viewBox="0 0 232 204" fill="none" xmlns="http://www.w3.org/2000/svg">
<path d="M149.442 168.683C169.691 149.128 198.63 118.901 209.311 96.4731C217.307 79.7155 217.944 60.2539 211.054 43.2077C195.984 4.2907 141.469 -4.8317 112.729 26.6937C111.111 28.4568 109.659 30.3633 108.169 32.3209C107.561 33.1198 106.946 33.9272 106.31 34.7369C105.477 34.1332 104.663 33.526 103.859 32.925C101.888 31.4528 99.968 30.0191 97.9277 28.7689C61.6256 6.36292 11.7213 30.1257 7.93465 71.6866C5.99853 89.9701 11.963 108.506 24.2591 122.419C40.696 141.044 76.8321 162.148 101.678 175.38C108.601 179.069 127.869 188.502 127.869 188.502C127.869 188.502 143.8 174.133 149.442 168.683Z" fill="#232323"/>
<path d="M90.1523 106.427C99.9947 116.204 124.056 128.45 141.56 99.2195" stroke="white" stroke-linecap="round"/>
<path d="M86.0156 105.663C87.4333 106.479 90.9998 107.399 93.9245 104.554" stroke="white" stroke-linecap="round"/>
<path d="M136.422 98.4558C137.84 99.2713 141.406 100.191 144.331 97.3469" stroke="white" stroke-linecap="round"/>
<path d="M84.7773 68.2007C87.7205 71.8922 94.7846 76.6476 99.4961 66.137" stroke="white" stroke-linecap="round"/>
<line x1="86.518" y1="70.6995" x2="83.518" y2="74.6995" stroke="white" stroke-linecap="round"/>
<line x1="92.4048" y1="72.3917" x2="93.3853" y2="77.2946" stroke="white" stroke-linecap="round"/>
<line x1="97.4663" y1="69.721" x2="102.109" y2="71.5779" stroke="white" stroke-linecap="round"/>
<path d="M119.777 63.063C122.72 66.7545 129.785 71.5099 134.496 60.9993" stroke="white" stroke-linecap="round"/>
<line x1="121.518" y1="65.5618" x2="118.518" y2="69.5618" stroke="white" stroke-linecap="round"/>
<line x1="127.405" y1="67.254" x2="128.385" y2="72.157" stroke="white" stroke-linecap="round"/>
<line x1="132.466" y1="64.5833" x2="137.109" y2="66.4402" stroke="white" stroke-linecap="round"/>
</svg>
