<svg width="19" height="26" viewBox="0 0 19 26" fill="none" xmlns="http://www.w3.org/2000/svg">
<path d="M9.24648 0.30818C9.28214 -0.102727 9.71786 -0.102727 9.75352 0.30818L10.0524 3.75531C10.4384 8.20649 13.0029 11.7159 16.2557 12.2441L18.7748 12.6531C19.0751 12.7019 19.0751 13.2981 18.7748 13.3469L16.2557 13.7559C13.0029 14.2841 10.4384 17.7935 10.0524 22.2446L9.75352 25.6918C9.71786 26.1027 9.28214 26.1027 9.24648 25.6918L8.94758 22.2446C8.56163 17.7935 5.99705 14.2841 2.74427 13.7559L0.225208 13.3469C-0.0750695 13.2981 -0.0750695 12.7019 0.225208 12.6531L2.74427 12.2441C5.99705 11.7159 8.56163 8.20649 8.94758 3.75531L9.24648 0.30818Z" fill="#656565"/>
</svg>
